<svg id="Layer_1" data-name="Layer 1" xmlns="http://www.w3.org/2000/svg" viewBox="0 0 500 500.00001"><defs><style>.cls-1{fill:#2e37a9;}.cls-2{fill:#1fbff0;}</style></defs><g id="grafisch_logo" data-name="grafisch logo"><path class="cls-1" d="M347.7912,306.30141q28.701.63584,42.27019,12.7757,13.55938,12.14727,13.56431,34.54169a43.98793,43.98793,0,0,1-6.9399,24.13186,60.00444,60.00444,0,0,1-18.92695,18.45378,96.91032,96.91032,0,0,1-28.39043,11.67161,145.52576,145.52576,0,0,1-35.33031,4.10082q-18.927,0-32.17582-2.99677-13.24887-3.00171-21.60827-8.35941A31.30035,31.30035,0,0,1,248.267,387.37182a40.99653,40.99653,0,0,1-3.62766-17.34971q0-14.19522,6.78216-23.34324A63.07343,63.07343,0,0,1,269.5598,330.591a35.72186,35.72186,0,0,1-11.5139-10.883q-4.25856-6.46179-4.25855-16.56109,0-11.9846,5.04719-19.55784,5.04226-7.57079,14.82612-14.51066A54.97476,54.97476,0,0,1,256.62641,249.836a53.19483,53.19483,0,0,1-5.99353-25.23624,55.32636,55.32636,0,0,1,4.73175-22.87007,51.85586,51.85586,0,0,1,13.722-18.29605,65.89,65.89,0,0,1,21.92372-12.14478,89.50064,89.50064,0,0,1,29.02133-4.41628A83.26875,83.26875,0,0,1,349.053,171.762a71.81451,71.81451,0,0,1,22.08144,12.46025,37.69373,37.69373,0,0,1,14.82612-11.82934q8.82765-3.94065,23.97414-3.94311.62842,4.10331,1.10407,8.044a70.29465,70.29465,0,0,1,.47317,8.3594q0,5.04966-.31545,10.09438a93.78276,93.78276,0,0,1-1.2618,10.40982H384.38334a44.54951,44.54951,0,0,1,2.839,7.57078,43.96665,43.96665,0,0,1,1.2618,11.67162,57.00252,57.00252,0,0,1-4.574,22.87037,49.54,49.54,0,0,1-13.4066,18.13833,65.8321,65.8321,0,0,1-21.60827,11.98706,87.95058,87.95058,0,0,1-28.86361,4.41628,95.06671,95.06671,0,0,1-24.28958-2.83905q-5.36757,3.47487-6.62444,7.413a24.3499,24.3499,0,0,0-1.2618,7.41306,10.80612,10.80612,0,0,0,3.31222,8.20168q3.31221,3.157,13.40658,3.46994Zm-40.3775,32.8067a26.9895,26.9895,0,0,0-11.5139,1.57724,19.50666,19.50666,0,0,0-7.25533,4.88946,17.43819,17.43819,0,0,0-3.78539,6.62443,24.16274,24.16274,0,0,0-1.10408,7.09761q0,11.98461,8.9903,16.24564,8.9903,4.25856,24.13186,4.25857,19.87331,0,32.01809-6.309,12.13988-6.3139,12.1448-17.03425a22.42029,22.42029,0,0,0-.78862-5.99353,12.52962,12.52962,0,0,0-2.99676-5.20492,16.806,16.806,0,0,0-6.15126-3.94311,29.00336,29.00336,0,0,0-10.56755-1.57725Zm12.93344-86.11763q13.24887,0,19.08468-7.57077,5.83335-7.57079,5.83582-20.82,0-13.24887-5.83581-20.97738-5.84073-7.726-19.08467-7.72851-13.56678,0-19.55785,7.7285-5.996,7.73343-5.99354,20.97737,0,13.24887,5.99352,20.82Q306.77791,252.99049,320.34714,252.99048Z"/><path class="cls-1" d="M96.94625,114.02953q9.88633-1.5427,22.86774-2.47219,12.979-.92706,32.44747-.92707a177.8306,177.8306,0,0,1,32.13844,2.78122,80.2817,80.2817,0,0,1,26.42151,9.42521,49.01945,49.01945,0,0,1,17.76885,17.76885q6.48948,11.12486,6.48919,27.81212a55.97789,55.97789,0,0,1-2.93542,18.38689,50.95986,50.95986,0,0,1-7.8801,14.83313,48.66722,48.66722,0,0,1-11.12485,10.5068,30.2135,30.2135,0,0,1-12.67,5.09889,67.70023,67.70023,0,0,1,15.7602,4.32633,52.02891,52.02891,0,0,1,28.42986,27.19436q4.93955,10.50922,4.94437,25.33993,0,20.09136-7.57107,32.911a55.738,55.738,0,0,1-20.39525,20.241A87.10329,87.10329,0,0,1,191.971,337.45381a217.05127,217.05127,0,0,1-35.38319,2.78122q-14.21749,0-28.12113-.77256-13.90606-.775-31.5204-2.93573Zm58.40544,90.23486a70.17433,70.17433,0,0,0,14.36959-1.39061,30.181,30.181,0,0,0,11.58838-4.94437,23.80082,23.80082,0,0,0,7.72559-9.57973q2.78121-6.02595,2.78121-15.29666,0-8.95927-3.24475-14.67862a25.02751,25.02751,0,0,0-8.34363-8.96168,30.745,30.745,0,0,0-11.43387-4.32633,74.46167,74.46167,0,0,0-12.51545-1.08158,95.33016,95.33016,0,0,0-14.5241.92707v59.33251Zm-13.597,98.26977q4.32391.62288,10.04326.92707,5.71452.31144,10.35229.309a79.276,79.276,0,0,0,13.597-1.23609,40.22944,40.22944,0,0,0,13.288-4.78986,29.223,29.223,0,0,0,10.19777-9.88875q4.01248-6.33016,4.01731-16.53276,0-9.57491-3.09023-15.91471a25.7085,25.7085,0,0,0-8.80717-10.19778,36.67329,36.67329,0,0,0-13.597-5.40821,91.14062,91.14062,0,0,0-17.45982-1.54512H141.75466Z"/><path class="cls-2" d="M497.21878,157.293C493.51212,72.03914,427.961,6.48783,342.70707,2.78121c-85.29048-3.70828-100.12361-3.70828-185.41409,0C72.039,6.48783,6.48786,72.03914,2.7812,157.293c-3.70824,85.29049-3.70824,100.12361,0,185.4141C6.4879,427.961,72.039,493.51217,157.293,497.21879c85.29048,3.70828,100.12361,3.70828,185.41409,0,85.25393-3.70662,150.805-69.25778,154.51171-154.51174C500.9271,257.41656,500.9271,242.58344,497.21878,157.293Zm-45.985,192.60447c-1.09984,24.10338-5.127,37.19388-8.51248,45.90523a81.86921,81.86921,0,0,1-46.91865,46.91861c-8.71143,3.38553-21.80177,7.41264-45.90519,8.51248-26.06461,1.18947-33.88258,1.44115-99.89742,1.44115s-73.83281-.25168-99.89743-1.44115c-24.10341-1.09984-37.19383-5.127-45.90519-8.51248A76.59494,76.59494,0,0,1,75.772,424.22844a76.59731,76.59731,0,0,1-18.4932-28.42579c-3.38553-8.71135-7.41264-21.80185-8.51252-45.90492C47.57689,323.829,47.32513,316.01046,47.32513,250c0-66.01031.25176-73.829,1.44112-99.89742,1.09988-24.10338,5.127-37.19388,8.51252-45.90508A76.59388,76.59388,0,0,1,75.77159,75.772a76.59485,76.59485,0,0,1,28.42582-18.49328c8.71136-3.38553,21.80178-7.41264,45.90482-8.51248C176.171,47.57694,183.98968,47.32511,250,47.32511s73.829.25183,99.89742,1.44115c24.10342,1.09984,37.19376,5.127,45.90519,8.51248a76.59547,76.59547,0,0,1,28.42541,18.49282,76.59563,76.59563,0,0,1,18.49324,28.42594c3.38549,8.7112,7.41264,21.8017,8.51248,45.90477,1.18935,26.06873,1.44111,33.88742,1.44111,99.89773C452.67488,316.01046,452.42312,323.829,451.23377,349.89742Z"/></g></svg>